<?xml version="1.0" encoding="UTF-8"?><svg id="Layer_1" xmlns="http://www.w3.org/2000/svg" width="500" height="500" viewBox="0 0 500 500"><defs><style>.cls-1{fill:#737159;}</style></defs><path d="m90.8,138.55l-7.06-2.24-1.21,1.73-.58-.4,6.58-9.39.58.4-1.25,1.79,17.5,5.52-11.79-13.68-2.14,3.06-.58-.4,4.25-6.06.58.4-1.4,2,17.03,20.24-1.89,2.7-16.84-5.11,10.94,13.53-1.85,2.64-26.29-7.03-1,1.42-.58-.4,6.9-9.85.58.4-1.49,2.12,17.98,5.23-6.97-8.63Z"/><path d="m108.26,117.26c3.96-4.25,7.79-4.07,11.67-.15l-7.11,7.63,1.06.98c3.19,2.98,5.89,4.43,8.34,1.8,1.87-2,1.86-4.54.33-7.08l.54-.41c1.75,2.79,2.22,5.86-1.36,9.71-4.49,4.82-9.27,4.41-13.19.75-4.68-4.36-3.76-9.47-.26-13.24Zm6.64,4.16l-1.33-1.24c-2.84-2.65-3.99-3.31-5.03-2.21-.88.95-.44,2.32,2.43,4.99l1.33,1.24,2.6-2.79Z"/><path d="m115.55,96.59l18.19,20.06,1.53-1.39.45.49-8.14,7.38-.45-.49,1.51-1.37-17.75-19.57-1.62,1.47-.45-.49,6.71-6.09Z"/><path d="m135.74,103.4l1.17,1.52c2.89,3.75,4.85,4.91,7.13,3.15,2.67-2.05,2.08-5.19,1.18-7.02l.57-.35c1.02,2.11,2.33,5.82-2.57,9.58-4.52,3.47-8.98,2.89-12.5-1.68-3.79-4.93-2.74-9.75,2.1-13.47,3.58-2.75,6.54-2.6,8.23-.4,1.4,1.82,1.15,3.5-.31,4.63-1.52,1.17-3.22,1.22-4.48-.43-.2-.26-.47-.67-.67-1.17l.97-.74c-.17-.52-.38-.92-.61-1.21-.77-1-1.67-.96-2.49-.33-1.7,1.31-1.1,3.55,2.26,7.92Z"/><path d="m148.46,84.46c5.3-3.26,9.35-2.32,12.49,2.79,3.18,5.17,2.55,9.51-3.07,12.96-5.3,3.26-9.72,2.07-12.74-2.85-3.18-5.17-1.76-9.78,3.32-12.9Zm5.72,5.35c-2.09-3.4-3.7-5.81-5.46-4.72-1.92,1.18-.51,3.7,1.68,7.26l1.51,2.46c2.25,3.66,3.76,5.98,5.69,4.8,1.8-1.1.75-3.02-1.77-7.12l-1.65-2.68Z"/><path d="m166.87,74.77l1.34,3.13c-.19-1.93.18-4.18,3.31-5.52,2.41-1.04,4.67-.75,6.37,1.61-.19-1.93.36-4.5,3.42-5.82,2.96-1.27,5.67-.58,7.43,3.53l4.39,10.23,1.9-.82.26.61-9.42,4.04-.26-.61,1.19-.51-4.74-11.05c-1.24-2.89-1.76-3.07-2.37-2.81-1.22.52-1.69,2.9-.47,5.76l4.11,9.59,1.22-.52.26.61-8.74,3.75-.26-.61,1.19-.51-4.74-11.05c-1.24-2.89-1.76-3.07-2.37-2.81-1.26.54-1.56,3.21-.38,5.96l4.03,9.38,1.22-.52.26.61-9.42,4.04-.26-.61,1.87-.8-6.42-14.96-1.87.8-.26-.61,8.19-3.52Z"/><path d="m199.93,62.43c5.61-1.5,8.76.68,9.97,6.07l-10.08,2.69.37,1.39c1.13,4.22,2.64,6.88,6.11,5.95,2.65-.71,3.98-2.86,4.04-5.83l.67-.06c0,3.29-1.23,6.15-6.31,7.51-6.36,1.7-10.2-1.18-11.58-6.37-1.65-6.19,1.84-10.03,6.81-11.36Zm3.42,7.05l-.47-1.75c-1-3.75-1.62-4.93-3.09-4.54-1.25.33-1.61,1.73-.59,5.52l.47,1.75,3.68-.98Z"/><path d="m236.06,56.33l-2.7-6.9-2.1.14-.05-.7,11.44-.79.05.7-2.18.15,6.7,17.08,3.23-17.76-3.73.26-.05-.7,7.38-.51.05.7-2.44.17-5.04,25.97-3.29.23-6.61-16.31-3.65,17.01-3.21.22-11.05-24.87-1.73.12-.05-.7,12-.82.05.7-2.58.18,7.23,17.27,2.33-10.84Z"/><path d="m263.58,56.52c5.8.4,8.07,3.49,7.46,8.97l-10.41-.72-.1,1.44c-.3,4.36.27,7.36,3.85,7.61,2.73.19,4.7-1.42,5.71-4.2l.66.16c-1.07,3.12-3.16,5.42-8.4,5.05-6.57-.46-9.26-4.43-8.89-9.78.44-6.39,4.99-8.89,10.12-8.53Zm.94,7.78l.13-1.81c.27-3.88.06-5.19-1.45-5.29-1.29-.09-2.08,1.12-2.35,5.03l-.13,1.81,3.8.26Z"/><path d="m284.25,49.19l-4.14,26.76,2.05.32-.1.66-10.86-1.68.1-.66,2.01.31,4.04-26.1-2.16-.33.1-.66,8.96,1.39Z"/><path d="m291.64,69.16l-.45,1.87c-1.11,4.61-.77,6.85,2.04,7.53,3.27.79,5.34-1.65,6.2-3.5l.63.23c-1,2.12-3.06,5.47-9.07,4.02-5.54-1.33-7.89-5.17-6.55-10.78,1.45-6.04,5.86-8.26,11.8-6.83,4.39,1.05,6.14,3.45,5.49,6.15-.54,2.23-2,3.1-3.8,2.67-1.87-.45-2.97-1.74-2.49-3.75.08-.32.23-.78.49-1.25l1.19.29c.3-.46.48-.88.56-1.23.29-1.22-.31-1.9-1.31-2.14-2.09-.5-3.45,1.38-4.74,6.74Z"/><path d="m314.37,67.17c5.86,2.08,7.67,5.82,5.67,11.47-2.03,5.72-5.8,7.95-12.01,5.75-5.86-2.08-7.71-6.27-5.78-11.7,2.03-5.72,6.51-7.51,12.12-5.52Zm-.57,7.8c1.33-3.77,2.19-6.52.24-7.21-2.13-.75-3.2,1.93-4.59,5.87l-.96,2.72c-1.43,4.04-2.29,6.68-.16,7.44,1.99.7,2.82-1.32,4.43-5.85l1.05-2.96Z"/><path d="m333.48,75.41l-1.59,3.01c1.39-1.36,3.37-2.49,6.38-.89,2.32,1.23,3.52,3.16,2.74,5.97,1.39-1.36,3.73-2.54,6.68-.99,2.84,1.51,4.01,4.05,1.92,8.01l-5.21,9.84,1.83.97-.31.59-9.06-4.8.31-.59,1.14.61,5.63-10.63c1.47-2.78,1.29-3.3.7-3.61-1.18-.62-3.32.5-4.78,3.25l-4.88,9.22,1.18.62-.31.59-8.4-4.45.31-.59,1.14.61,5.63-10.63c1.47-2.78,1.29-3.3.7-3.61-1.21-.64-3.48.8-4.88,3.44l-4.78,9.02,1.18.62-.31.59-9.06-4.8.31-.59,1.8.95,7.62-14.39-1.8-.95.31-.59,7.88,4.17Z"/><path d="m363.82,93.39c4.69,3.42,4.97,7.25,1.54,11.57l-8.43-6.15-.85,1.17c-2.57,3.53-3.69,6.38-.79,8.49,2.21,1.61,4.73,1.3,7.07-.52l.47.48c-2.56,2.07-5.56,2.91-9.8-.19-5.32-3.88-5.49-8.67-2.33-13.01,3.77-5.17,8.96-4.87,13.11-1.84Zm-3.34,7.09l1.07-1.46c2.29-3.14,2.81-4.36,1.59-5.25-1.05-.76-2.36-.16-4.67,3.01l-1.07,1.46,3.08,2.25Z"/><path d="m391.29,117.63l3.66-6.44-1.44-1.54.51-.48,7.81,8.4-.51.48-1.49-1.6-9.05,15.96,15.83-8.67-2.55-2.74.51-.48,5.04,5.42-.51.48-1.66-1.79-23.35,12.44-2.24-2.41,8.51-15.4-15.52,7.87-2.19-2.36,12.36-24.24-1.18-1.27.51-.48,8.19,8.8-.51.48-1.76-1.9-8.86,16.49,9.89-5.01Z"/><path d="m408.45,139.15c3.33,4.76,2.36,8.47-2.29,11.45l-5.98-8.55-1.18.83c-3.58,2.5-5.56,4.84-3.5,7.78,1.57,2.24,4.06,2.76,6.86,1.8l.29.61c-3.1,1.13-6.2.95-9.21-3.36-3.78-5.4-2.38-9.99,2.02-13.06,5.25-3.67,10.05-1.7,13,2.51Zm-5.46,5.62l1.49-1.04c3.18-2.23,4.07-3.21,3.21-4.46-.74-1.06-2.18-.92-5.39,1.33l-1.49,1.04,2.18,3.12Z"/><path d="m427.15,150.62l-23.43,13.59,1.04,1.79-.58.33-5.52-9.51.58-.33,1.02,1.76,22.86-13.26-1.1-1.89.58-.33,4.55,7.84Z"/><path d="m416.26,168.93l-1.74.83c-4.28,2.04-5.82,3.71-4.58,6.32,1.45,3.04,4.64,3.12,6.62,2.63l.22.63c-2.28.55-6.18,1.05-8.83-4.53-2.45-5.15-.94-9.39,4.27-11.87,5.61-2.67,10.11-.63,12.73,4.88,1.94,4.08,1.17,6.94-1.33,8.13-2.07.99-3.67.39-4.46-1.28-.83-1.74-.51-3.4,1.36-4.29.3-.14.75-.32,1.28-.41l.52,1.1c.55-.06.98-.18,1.31-.34,1.14-.54,1.29-1.43.84-2.37-.92-1.94-3.24-1.82-8.22.55Z"/><path d="m432.09,185.36c2.07,5.86.29,9.63-5.36,11.62-5.72,2.02-9.83.48-12.02-5.73-2.07-5.86.03-9.94,5.47-11.85,5.72-2.02,9.93.35,11.91,5.96Zm-6.43,4.46c3.77-1.33,6.45-2.39,5.76-4.35-.75-2.13-3.51-1.27-7.45.12l-2.72.96c-4.05,1.43-6.64,2.42-5.89,4.55.7,1.99,2.8,1.37,7.33-.23l2.97-1.05Z"/><path d="m437.68,205.4l-3.34.65c1.93.23,4.05,1.06,4.7,4.4.5,2.58-.25,4.72-2.93,5.88,1.93.23,4.32,1.31,4.96,4.58.61,3.16-.63,5.66-5.03,6.52l-10.93,2.13.4,2.03-.65.13-1.96-10.06.65-.13.25,1.27,11.8-2.3c3.09-.6,3.37-1.07,3.25-1.72-.25-1.31-2.48-2.27-5.53-1.68l-10.24,1.99.25,1.31-.65.13-1.82-9.33.65-.13.25,1.27,11.8-2.3c3.09-.6,3.37-1.07,3.25-1.72-.26-1.34-2.8-2.21-5.75-1.63l-10.02,1.95.25,1.31-.65.13-1.96-10.06.65-.13.39,2,15.98-3.11-.39-2,.65-.13,1.7,8.75Z"/><path d="m442.77,240.31c.29,5.8-2.51,8.42-8.03,8.47l-.52-10.42-1.44.07c-4.36.22-7.28,1.14-7.1,4.72.14,2.73,1.96,4.5,4.85,5.17l-.08.67c-3.22-.69-5.75-2.49-6.02-7.74-.33-6.58,3.3-9.72,8.66-9.99,6.39-.32,9.42,3.9,9.67,9.04Zm-7.61,1.86l1.81-.09c3.88-.19,5.16-.55,5.08-2.07-.06-1.29-1.36-1.93-5.27-1.74l-1.81.09.19,3.81Z"/><path d="m441.2,276.92l7.31-1.2.3-2.09.7.1-1.61,11.36-.7-.1.31-2.16-18.1,3,16.71,6.86.53-3.7.7.1-1.04,7.33-.7-.1.34-2.42-24.36-10.34.46-3.26,17.33-3.07-15.88-7.11.45-3.19,26.63-5.64.24-1.72.7.1-1.69,11.91-.7-.1.36-2.56-18.4,3.48,10.12,4.54Z"/><path d="m435.25,303.81c-1.61,5.58-5.11,7.15-10.34,5.41l2.9-10.02-1.39-.4c-4.19-1.21-7.25-1.29-8.25,2.16-.76,2.63.4,4.89,2.91,6.46l-.29.61c-2.82-1.7-4.63-4.23-3.17-9.27,1.83-6.33,6.27-8.12,11.43-6.63,6.15,1.78,7.64,6.75,6.21,11.69Zm-7.8-.71l1.74.5c3.73,1.08,5.06,1.15,5.48-.3.36-1.24-.65-2.27-4.42-3.36l-1.74-.5-1.06,3.66Z"/><path d="m438.06,325.59l-25.29-9.72-.74,1.93-.62-.24,3.94-10.26.62.24-.73,1.9,24.67,9.48.78-2.04.62.24-3.25,8.46Z"/><path d="m416.98,328.56l-1.73-.83c-4.27-2.05-6.54-2.2-7.79.4-1.46,3.03.48,5.57,2.11,6.8l-.36.57c-1.86-1.43-4.7-4.15-2.02-9.71,2.47-5.13,6.72-6.62,11.92-4.12,5.6,2.69,6.83,7.47,4.19,12.98-1.96,4.07-4.67,5.27-7.17,4.06-2.07-.99-2.6-2.61-1.8-4.27.83-1.73,2.33-2.54,4.19-1.64.3.14.72.39,1.12.74l-.53,1.1c.39.39.75.65,1.09.81,1.13.54,1.92.1,2.37-.83.93-1.93-.62-3.66-5.59-6.05Z"/><path d="m414.13,351.19c-3.27,5.29-7.31,6.27-12.41,3.12-5.16-3.19-6.55-7.35-3.09-12.95,3.27-5.29,7.75-6.21,12.66-3.18,5.16,3.19,5.96,7.95,2.83,13.01Zm-7.51-2.2c3.4,2.1,5.91,3.52,7,1.76,1.19-1.92-1.21-3.53-4.77-5.73l-2.46-1.52c-3.65-2.26-6.05-3.65-7.24-1.73-1.11,1.79.69,3.04,4.78,5.56l2.68,1.65Z"/><path d="m402.05,368.13l-2.61-2.19c1.04,1.64,1.72,3.81-.46,6.42-1.69,2.01-3.83,2.78-6.42,1.43,1.04,1.64,1.71,4.18-.44,6.73-2.07,2.47-4.8,3.07-8.23.19l-8.53-7.16-1.33,1.59-.51-.43,6.59-7.85.51.43-.83.99,9.21,7.73c2.41,2.02,2.95,1.95,3.38,1.44.86-1.02.21-3.35-2.17-5.35l-7.99-6.71-.86,1.02-.51-.43,6.11-7.28.51.43-.83.99,9.21,7.73c2.41,2.02,2.95,1.95,3.38,1.44.88-1.05-.05-3.57-2.34-5.49l-7.82-6.57-.86,1.02-.51-.43,6.59-7.85.51.43-1.31,1.56,12.47,10.47,1.31-1.56.51.43-5.73,6.83Z"/><path d="m378.13,394.03c-4.33,3.87-8.12,3.35-11.64-.91l7.78-6.96-.96-1.08c-2.91-3.25-5.46-4.94-8.14-2.55-2.04,1.83-2.26,4.35-.97,7.02l-.57.36c-1.49-2.94-1.68-6.04,2.23-9.54,4.91-4.39,9.63-3.55,13.21.45,4.27,4.77,2.89,9.78-.94,13.21Zm-6.23-4.75l1.21,1.35c2.59,2.89,3.67,3.66,4.8,2.65.97-.86.65-2.27-1.96-5.19l-1.21-1.35-2.84,2.54Z"/><path d="m348.65,415.85l5.53,4.93,1.81-1.08.36.6-9.85,5.88-.36-.6,1.88-1.12-13.71-12.2,5.16,17.3,3.21-1.92.36.6-6.35,3.79-.36-.6,2.1-1.25-7.26-25.44,2.83-1.69,13.27,11.55-4.44-16.83,2.76-1.65,21.11,17.17,1.49-.89.36.6-10.33,6.17-.36-.6,2.22-1.33-14.26-12.13,2.83,10.72Z"/><path d="m324,428.11c-5.35,2.25-8.77.52-10.7-4.65l9.62-4.04-.56-1.33c-1.69-4.02-3.56-6.45-6.86-5.06-2.52,1.06-3.55,3.38-3.2,6.32l-.66.16c-.45-3.26.38-6.26,5.22-8.3,6.07-2.55,10.26-.22,12.34,4.72,2.48,5.9-.45,10.18-5.19,12.18Zm-4.35-6.52l.7,1.67c1.51,3.58,2.28,4.66,3.68,4.07,1.19-.5,1.35-1.93-.17-5.55l-.7-1.67-3.51,1.48Z"/><path d="m308.86,443.97l-8.34-25.77-1.97.64-.21-.63,10.46-3.38.21.63-1.94.63,8.14,25.13,2.08-.67.21.63-8.62,2.79Z"/><path d="m293.25,429.46l-.44-1.87c-1.08-4.61-2.39-6.47-5.2-5.81-3.28.77-4.03,3.87-3.97,5.91l-.67.08c-.06-2.34.28-6.26,6.29-7.67,5.55-1.3,9.37,1.06,10.69,6.68,1.42,6.05-1.52,10.01-7.46,11.41-4.39,1.03-7.03-.32-7.67-3.02-.52-2.23.39-3.67,2.19-4.09,1.87-.44,3.43.22,3.91,2.23.08.32.15.8.12,1.34l-1.19.28c-.06.55-.03,1,.05,1.36.29,1.22,1.13,1.56,2.14,1.32,2.09-.49,2.46-2.78,1.2-8.15Z"/><path d="m273.88,441.46c-6.17.78-9.47-1.75-10.23-7.69-.76-6.02,1.6-9.71,8.14-10.54,6.17-.78,9.71,2.13,10.43,7.85.76,6.02-2.43,9.63-8.34,10.38Zm-3.01-7.23c.5,3.97.98,6.82,3.03,6.55,2.24-.28,1.99-3.16,1.46-7.31l-.36-2.86c-.54-4.26-.96-7-3.2-6.72-2.09.26-1.93,2.45-1.32,7.22l.4,3.12Z"/><path d="m253.14,442.71l.06-3.4c-.62,1.84-1.88,3.74-5.28,3.68-2.63-.05-4.57-1.23-5.14-4.09-.62,1.84-2.18,3.96-5.51,3.9-3.22-.06-5.41-1.8-5.33-6.27l.2-11.13-2.07-.04v-.67s10.26.18,10.26.18v.67s-1.31-.02-1.31-.02l-.21,12.02c-.06,3.14.34,3.52,1.01,3.53,1.33.02,2.74-1.95,2.79-5.06l.19-10.43-1.33-.02v-.67s9.52.17,9.52.17v.67s-1.31-.02-1.31-.02l-.21,12.02c-.06,3.14.34,3.52,1.01,3.53,1.37.02,2.74-2.28,2.79-5.28l.18-10.21-1.33-.02v-.67s10.26.18,10.26.18v.67s-2.05-.04-2.05-.04l-.29,16.27,2.04.04v.67s-8.93-.16-8.93-.16Z"/><path d="m217.94,440.42c-5.74-.92-7.72-4.21-6.62-9.61l10.3,1.66.23-1.42c.7-4.31.4-7.36-3.14-7.93-2.7-.44-4.81.99-6.06,3.67l-.64-.22c1.35-3.01,3.63-5.11,8.82-4.27,6.5,1.05,8.82,5.25,7.97,10.54-1.02,6.32-5.78,8.4-10.85,7.58Zm-.24-7.83l-.29,1.79c-.62,3.84-.53,5.16.97,5.4,1.28.21,2.17-.92,2.8-4.8l.29-1.79-3.76-.61Z"/><path d="m182.42,431.2l-.37,7.4,1.98.73-.24.66-10.76-3.97.24-.66,2.05.76.89-18.33-10.23,14.88,3.51,1.29-.24.66-6.94-2.56.24-.66,2.29.85,15.24-21.63,3.09,1.14-.66,17.59,10.31-14.02,3.02,1.11-.11,27.22,1.63.6-.24.66-11.28-4.17.24-.66,2.43.9.48-18.72-6.57,8.93Z"/><path d="m157.39,419.69c-5.11-2.75-5.91-6.5-3.1-11.25l9.19,4.95.68-1.27c2.07-3.84,2.79-6.82-.37-8.52-2.41-1.3-4.86-.64-6.93,1.48l-.53-.41c2.26-2.4,5.11-3.64,9.74-1.14,5.8,3.12,6.62,7.85,4.07,12.57-3.04,5.64-8.21,6.04-12.74,3.6Zm2.35-7.48l-.86,1.6c-1.84,3.42-2.2,4.7-.86,5.42,1.14.61,2.36-.16,4.22-3.61l.86-1.6-3.36-1.81Z"/><path d="m135.54,417.86l14.82-22.67-1.73-1.13.36-.56,9.2,6.01-.36.56-1.7-1.11-14.46,22.12,1.83,1.2-.36.56-7.59-4.96Z"/><path d="m137.04,396.6l1.18-1.52c2.9-3.74,3.53-5.93,1.25-7.7-2.66-2.07-5.55-.7-7.09.63l-.48-.47c1.79-1.52,5.04-3.72,9.92.07,4.5,3.49,5.06,7.96,1.52,12.52-3.81,4.91-8.74,5.11-13.57,1.36-3.56-2.77-4.17-5.67-2.47-7.86,1.41-1.81,3.1-2,4.56-.86,1.52,1.18,1.99,2.81.72,4.44-.2.26-.53.62-.96.94l-.96-.75c-.46.3-.79.6-1.02.89-.77.99-.5,1.86.31,2.49,1.69,1.32,3.71.17,7.09-4.19Z"/><path d="m115.52,389.08c-4.49-4.3-4.6-8.46-.46-12.79,4.2-4.38,8.56-4.87,13.32-.31,4.49,4.3,4.46,8.88.46,13.05-4.2,4.38-9.02,4.17-13.32.05Zm3.73-6.88c-2.77,2.88-4.68,5.05-3.19,6.48,1.63,1.56,3.71-.45,6.6-3.46l2-2.08c2.97-3.1,4.84-5.15,3.21-6.72-1.52-1.46-3.11.04-6.44,3.51l-2.18,2.27Z"/><path d="m101.48,373.73l2.69-2.09c-1.82.67-4.09.89-6.18-1.8-1.61-2.07-1.91-4.33-.05-6.57-1.82.67-4.45.79-6.49-1.84-1.98-2.54-2-5.34,1.53-8.09l8.79-6.84-1.27-1.63.53-.41,6.3,8.08-.53.41-.8-1.02-9.49,7.39c-2.48,1.93-2.52,2.48-2.11,3.01.82,1.05,3.24.9,5.69-1.01l8.23-6.41-.82-1.05.53-.41,5.84,7.5-.53.41-.8-1.02-9.49,7.39c-2.48,1.93-2.52,2.48-2.11,3.01.84,1.08,3.5.7,5.86-1.14l8.06-6.27-.82-1.05.53-.41,6.3,8.09-.53.41-1.25-1.61-12.84,10,1.25,1.61-.53.41-5.48-7.04Z"/><path d="m81.16,344.92c-2.88-5.04-1.57-8.64,3.32-11.19l5.18,9.06,1.25-.72c3.79-2.17,5.97-4.31,4.19-7.42-1.36-2.38-3.79-3.12-6.66-2.41l-.23-.63c3.18-.84,6.26-.38,8.87,4.18,3.27,5.72,1.46,10.16-3.2,12.82-5.56,3.17-10.16.78-12.72-3.68Zm5.95-5.1l-1.57.9c-3.37,1.93-4.35,2.83-3.6,4.14.64,1.12,2.08,1.11,5.49-.84l1.57-.9-1.89-3.31Z"/><path d="m66.02,311.51l-5.98,4.36.67,2-.67.22-3.67-10.87.67-.22.7,2.07,14.81-10.82-18,1.4,1.2,3.54-.67.22-2.37-7.01.67-.23.78,2.31,26.4-1.73,1.05,3.12-14.09,10.54,17.38-.79,1.03,3.05-21.24,17.01.56,1.65-.67.22-3.85-11.39.67-.23.83,2.45,14.86-11.38-11.08.5Z"/><path d="m59.24,284.82c-1.07-5.71,1.34-8.68,6.8-9.48l1.92,10.25,1.42-.27c4.29-.8,7.06-2.11,6.39-5.64-.5-2.69-2.55-4.19-5.5-4.46v-.67c3.27.25,6.02,1.69,6.99,6.85,1.21,6.47-1.95,10.08-7.22,11.07-6.29,1.18-9.86-2.59-10.81-7.65Zm7.29-2.87l-1.78.33c-3.82.72-5.04,1.25-4.76,2.74.24,1.27,1.6,1.73,5.46,1.01l1.78-.33-.7-3.75Z"/><path d="m46.93,266.66l26.95-2.71-.21-2.06.66-.07,1.1,10.94-.66.07-.2-2.02-26.29,2.65.22,2.17-.66.07-.91-9.02Z"/><path d="m64.41,254.47l1.92-.04c4.73-.09,6.83-.99,6.77-3.87-.07-3.37-2.94-4.75-4.95-5.12l.06-.67c2.3.44,6.06,1.58,6.19,7.76.11,5.7-3.01,8.94-8.77,9.05-6.21.12-9.47-3.59-9.59-9.69-.09-4.51,1.79-6.81,4.56-6.86,2.29-.05,3.5,1.15,3.54,3,.04,1.92-.93,3.31-3,3.35-.33,0-.81-.02-1.34-.16l-.02-1.22c-.52-.17-.97-.24-1.34-.23-1.26.03-1.76.78-1.74,1.81.04,2.15,2.21,2.99,7.72,2.88Z"/><path d="m56.71,233.05c.52-6.19,3.67-8.9,9.65-8.4,6.05.5,9.17,3.58,8.62,10.15-.52,6.19-4.09,9.05-9.84,8.57-6.05-.5-8.92-4.38-8.42-10.31Zm7.69-1.44c-3.98-.33-6.87-.46-7.04,1.6-.19,2.25,2.68,2.6,6.85,2.95l2.88.24c4.28.36,7.05.51,7.23-1.74.17-2.1-1.99-2.39-6.78-2.79l-3.13-.26Z"/><path d="m59.8,212.46l3.32.77c-1.67-1-3.27-2.62-2.49-5.94.6-2.56,2.16-4.21,5.08-4.18-1.67-1-3.41-2.96-2.66-6.2.73-3.14,2.89-4.91,7.25-3.9l10.85,2.53.47-2.02.65.15-2.32,9.98-.65-.15.29-1.26-11.71-2.73c-3.06-.71-3.52-.4-3.67.25-.3,1.3,1.33,3.08,4.36,3.79l10.16,2.37.3-1.3.65.15-2.16,9.26-.65-.15.29-1.26-11.71-2.73c-3.06-.71-3.52-.4-3.67.25-.31,1.33,1.66,3.16,4.58,3.84l9.95,2.32.3-1.3.65.15-2.32,9.98-.65-.15.46-1.98-15.86-3.69-.46,1.98-.65-.15,2.02-8.69Z"/><path d="m69.46,178.52c2.12-5.41,5.74-6.65,10.8-4.44l-3.8,9.72,1.34.53c4.07,1.59,7.1,1.95,8.41-1.39,1-2.55.05-4.91-2.3-6.7l.35-.58c2.65,1.95,4.23,4.63,2.31,9.53-2.4,6.13-6.99,7.51-11.99,5.56-5.96-2.33-6.99-7.42-5.11-12.21Zm7.71,1.43l-1.69-.66c-3.62-1.42-4.93-1.61-5.48-.2-.47,1.21.44,2.32,4.1,3.75l1.69.66,1.39-3.55Z"/><path d="m245.75,489.25c-32.26,0-63.56-6.32-93.03-18.78-28.46-12.04-54.02-29.27-75.97-51.22s-39.18-47.51-51.22-75.97c-12.46-29.47-18.78-60.77-18.78-93.03s6.32-63.56,18.78-93.03c12.04-28.46,29.27-54.02,51.22-75.97s47.51-39.18,75.97-51.22c29.47-12.46,60.77-18.78,93.03-18.78s63.56,6.32,93.03,18.78c28.46,12.04,54.02,29.27,75.97,51.22s39.18,47.51,51.22,75.97c12.46,29.47,18.78,60.77,18.78,93.03s-6.32,63.56-18.78,93.03c-12.04,28.46-29.27,54.02-51.22,75.97s-47.51,39.18-75.97,51.22c-29.47,12.46-60.77,18.78-93.03,18.78Zm0-477.5c-32.2,0-63.43,6.31-92.83,18.74-28.4,12.01-53.91,29.21-75.81,51.11-21.9,21.9-39.1,47.41-51.11,75.81-12.44,29.4-18.74,60.64-18.74,92.83s6.31,63.43,18.74,92.83c12.01,28.4,29.21,53.91,51.11,75.81,21.9,21.9,47.41,39.1,75.81,51.11,29.4,12.44,60.64,18.74,92.83,18.74s63.43-6.31,92.83-18.74c28.4-12.01,53.91-29.21,75.81-51.11,21.9-21.9,39.1-47.41,51.11-75.81,12.44-29.4,18.74-60.64,18.74-92.83s-6.31-63.43-18.74-92.83c-12.01-28.4-29.21-53.91-51.11-75.81-21.9-21.9-47.41-39.1-75.81-51.11-29.4-12.44-60.64-18.74-92.83-18.74Z"/><circle class="cls-1" cx="249.5" cy="249.5" r="150.5"/></svg>